<svg xmlns="http://www.w3.org/2000/svg" viewBox="0 0 24 24">
  <defs>
    <linearGradient id="g" x1="0" y1="0" x2="1" y2="1">
      <stop offset="0" stop-color="#8b7cf4"/>
      <stop offset="0.5" stop-color="#6d5ef8"/>
      <stop offset="1" stop-color="#5a47e6"/>
    </linearGradient>
  </defs>
  <rect width="24" height="24" rx="4.5" fill="url(#g)"/>
  <path d="M4 5.5h16a1 1 0 0 1 1 1V16a1 1 0 0 1-1 1H9l-4.5 4V17H4a1 1 0 0 1-1-1V6.5a1 1 0 0 1 1-1Z" fill="none" stroke="#fff" stroke-width="1.6" stroke-linecap="round" stroke-linejoin="round"/>
  <path fill="#fff" d="M14.5 6.5c.4 2.3 1.1 3.1 3.3 3.3-2.2.2-2.9 1-3.3 3.3-.4-2.3-1.1-3.1-3.3-3.3 2.2-.2 2.9-1 3.3-3.3Z"/>
</svg>
